<?xml version="1.0" encoding="utf-8"?>
<!-- Generator: Adobe Illustrator 24.1.2, SVG Export Plug-In . SVG Version: 6.00 Build 0)  -->
<svg version="1.1" id="Layer_1" xmlns="http://www.w3.org/2000/svg" xmlns:xlink="http://www.w3.org/1999/xlink" x="0px" y="0px"
	 viewBox="0 0 512 512" style="enable-background:new 0 0 512 512;" xml:space="preserve">
<style type="text/css">
	.st0{fill:#FFFFFF;}
</style>
<g id="outline">
	<path class="st0" d="M56,424h16c4.4,0,8-3.6,8-8s-3.6-8-8-8H56c-4.4,0-8,3.6-8,8S51.6,424,56,424z"/>
	<path class="st0" d="M440,424h16c4.4,0,8-3.6,8-8s-3.6-8-8-8h-16c-4.4,0-8,3.6-8,8S435.6,424,440,424z"/>
	<path class="st0" d="M56,472h16c4.4,0,8-3.6,8-8s-3.6-8-8-8H56c-4.4,0-8,3.6-8,8S51.6,472,56,472z"/>
	<path class="st0" d="M248,424h16c4.4,0,8-3.6,8-8s-3.6-8-8-8h-16c-4.4,0-8,3.6-8,8S243.6,424,248,424z"/>
	<path class="st0" d="M248,472h16c4.4,0,8-3.6,8-8s-3.6-8-8-8h-16c-4.4,0-8,3.6-8,8S243.6,472,248,472z"/>
	<path class="st0" d="M440,472h16c4.4,0,8-3.6,8-8s-3.6-8-8-8h-16c-4.4,0-8,3.6-8,8S435.6,472,440,472z"/>
	<path class="st0" d="M147.6,264.5c-1.6-4.1-6.2-6.2-10.4-4.5c0,0,0,0,0,0l-14.9,5.8c-4.1,1.6-6.2,6.2-4.5,10.4
		c1.6,4.1,6.2,6.2,10.4,4.5l14.9-5.8C147.2,273.2,149.2,268.6,147.6,264.5C147.6,264.5,147.6,264.5,147.6,264.5z"/>
	<path class="st0" d="M485.8,208.1c2.1-19.8-11.4-37.9-31-41.5c-20.6-31.4-62.8-40.1-94.1-19.4c-7.7,5.1-14.3,11.7-19.4,19.4
		c-4.5,0.8-8.8,2.4-12.7,4.8l31-80.5c1.6-4.1-0.5-8.8-4.6-10.3c-0.1,0-0.2-0.1-0.3-0.1l-24-8c-4.1-1.4-8.5,0.7-10,4.7L312,99.3V24
		c0-4.4-3.6-8-8-8h-32c-4.4,0-8,3.6-8,8v75.3l-8.5-22.2c-1.5-4-5.9-6.1-10-4.7l-24,8c-4.2,1.4-6.5,5.9-5.1,10.1
		c0,0.1,0.1,0.2,0.1,0.3l34.3,89.1c3.4,8.9,5.2,18.4,5.2,28v9c-2.7,1-5.2,2.2-7.7,3.7l-2.7-5.4c-7.1-14.3-21.6-23.3-37.6-23.2h-19
		c-4.4,0-8,3.6-8,8c0,1.2,0.3,2.5,0.8,3.6l6.6,13.2c7.1,14.3,21.6,23.3,37.6,23.2h2.2c-3,4.8-5.2,10-6.6,15.4
		c-12.3-12.4-32.3-12.6-44.7-0.4c-0.9,0.9-1.7,1.8-2.5,2.8l-1.9,2.3c-1.9,2.3-3.5,4.8-5,7.3l-7.1-24.6
		c-3.4-11.6-10.7-21.6-20.6-28.4c14.4-10.8,19.8-29.8,13.2-46.5c-6.7-16.8-23.7-27.1-41.7-25.2C91,125.5,60.7,127.9,43.5,148
		c-6.2,7.2-10,16.1-11.2,25.5c-14.5,10.8-20.1,29.9-13.6,46.8c6.5,16.8,23.4,27.1,41.3,25.3c-2.7,11.8-1.3,24.1,4.1,34.9L91.8,336
		H24c-4.4,0-8,3.6-8,8v144c0,4.4,3.6,8,8,8h464c4.4,0,8-3.6,8-8V344c0-4.4-3.6-8-8-8h-50.1c0.9-5.6,2.8-11.1,5.5-16.1
		c0.8,0,1.7,0.1,2.6,0.1c26.5,0,48-21.5,48-48c0-6.2-1.2-12.4-3.6-18.2C499.3,239.2,497.4,220.5,485.8,208.1L485.8,208.1z
		 M398.6,322.6c-1.2-5.6-3.1-11.1-5.7-16.3c1.7-0.8,3.4-1.7,5-2.7c2,1.2,4,2.2,6.1,3.2C401.6,311.8,399.8,317.1,398.6,322.6z
		 M377.5,311.3c4.3,7.5,6.5,16,6.5,24.7h-8.5c-0.9-7-2.8-13.8-5.9-20.2C372.4,314.6,375,313.1,377.5,311.3z M353.8,319.9
		c2.8,5,4.7,10.5,5.6,16.1h-23.8c-1.2-5.5-3.5-10.6-6.8-15l-8.5-11.4c8.5,6.8,19,10.4,29.8,10.4C351.3,320,352.5,320,353.8,319.9z
		 M286.9,329.5c10.1-16.2,11.9-36.3,4.8-54l11.1-27.3c0.8,1.9,1.7,3.8,2.8,5.6c-4.2,10.1-4.7,21.4-1.6,31.9V312
		c0,1.7,0.6,3.4,1.6,4.8l10.3,13.8c1.2,1.7,2.3,3.5,3,5.4h-36.1L286.9,329.5z M332.7,90l8.8,2.9l-31.3,81.3
		c-3.4,8.9-5.5,18.4-6.1,27.9l-22.8,56.2l-0.4-0.5c-2.5-3.1-5.5-5.7-9-7.7v-12.1L332.7,90z M280,140V32h16v105.8
		c0,0.8,0.1,1.5,0.3,2.2l-8.3,21.7l-8-20.9C280,140.5,280,140.3,280,140z M234.5,92.9l8.8-2.9l32.6,84.7c1.3,3.3,2.2,6.7,2.9,10.2
		l-7.1,15.5c-0.7-9-2.7-17.8-5.9-26.2L234.5,92.9z M256,236.4L256,236.4v9.6c-5.3,0-10.5,1.4-15.2,4c3.6-6.4,8.8-11.7,15.2-15.3
		V236.4z M202.8,209.6l-0.8-1.6h6c9.9,0,18.9,5.5,23.3,14.4l0.8,1.6h-6C216.2,224,207.1,218.5,202.8,209.6z M184.9,270.2l1.9-2.3
		c5.4-6.7,15.2-7.8,22-2.4c1.3,1,2.3,2.2,3.2,3.5c5.8,8.6,17.4,11,26.1,5.2c2.1-1.4,3.8-3.1,5.2-5.2c3.9-5.9,11.4-8.4,18.1-6.1
		c0,0,0.1,0,0.1,0.1c2.7,1,5.1,2.7,6.9,5l1.9,2.3c11.7,14.6,12.8,35,3,50.8l-9.4,15h-72.6l-9.4-15
		C172.1,305.2,173.3,284.8,184.9,270.2z M159.4,294.6c0-0.1,0-0.1-0.1-0.2L159.4,294.6C159.4,294.6,159.4,294.6,159.4,294.6
		L159.4,294.6z M33.7,214.5c-4.3-11,0.1-23.5,10.3-29.5c2.4-1.4,3.9-3.9,4-6.7c0.5-17.7,15.3-31.6,32.9-31.1
		c8.3,0.2,16.2,3.7,22,9.6c1.9,2,4.8,2.8,7.5,2.2c11.6-2.5,23.2,3.7,27.6,14.7c4.8,12.3-1.2,26.2-13.5,31c-1.7,0.7-3.6,1.2-5.4,1.4
		c-0.3,0-0.6-0.1-0.8-0.1c1.7-7.9,5.4-15.2,10.8-21.1c3-3.3,2.8-8.3-0.5-11.3c-3.3-3-8.3-2.8-11.3,0.5c0,0-0.1,0.1-0.1,0.1
		c-7.5,8.4-12.7,18.7-14.8,29.7c-1.3,0.1-2.5,0.5-3.6,1.3l-11.3-28.9c-1.6-4.1-6.2-6.2-10.4-4.5c-4.1,1.6-6.2,6.2-4.5,10.4L83.8,211
		c-1.3,0.2-2.5,0.7-3.5,1.5c-9.1-6.7-19.8-10.8-31-11.8c-4.4-0.4-8.3,2.8-8.7,7.2c-0.4,4.4,2.8,8.3,7.2,8.7c8,0.8,15.7,3.6,22.2,8.2
		c-0.2,0.2-0.3,0.5-0.5,0.7c-10.9,7.5-25.8,4.8-33.3-6.1C35.2,217.9,34.3,216.2,33.7,214.5L33.7,214.5z M103.9,324.5l13.5-5.3
		c4.1-1.6,6.2-6.2,4.6-10.3s-6.2-6.2-10.3-4.6c0,0,0,0-0.1,0l-14.9,5.8l-7.2-14.4l8.8-3.4c4.1-1.6,6.2-6.2,4.5-10.4
		s-6.2-6.2-10.4-4.5l-10.1,4l-4-8c-4.5-9-5-19.5-1.4-28.9c1-2.6,2.3-5,3.8-7.3c3-2.4,5.6-5.1,7.8-8.2c2.7-2,5.6-3.7,8.8-4.9h0l0,0
		c3.1-1.2,6.4-2,9.8-2.3c3.7,0.8,7.5,1.1,11.3,0.8c2.7,0.6,5.3,1.6,7.8,2.8c9.1,4.4,15.8,12.5,18.6,22.2l12.7,44
		c0.1,0.2,0.1,0.3,0.2,0.5c-2.2-2.5-5.8-3.4-8.9-2.2l-7.5,2.9c-4.1,1.6-6.2,6.2-4.5,10.4c1.6,4.1,6.2,6.2,10.4,4.5l7.5-2.9
		c2.2-0.8,3.8-2.6,4.6-4.8c0.4,10.5,3.5,20.7,9.1,29.6l4.1,6.5h-62.8L103.9,324.5z M480,432H32v-32h448V432z M480,480H32v-32h448
		V480z M480,384H32v-32h448V384z M421.7,336h-8.5c0-8.4,2.1-16.7,6.2-24c2.5,1.7,5.2,3.1,8,4.3C424.5,322.5,422.6,329.2,421.7,336z
		 M475,247.9c-2.1,2.5-2.4,6-0.9,8.9c8.4,15.6,2.6,35-13,43.4c-4.7,2.5-9.9,3.8-15.2,3.8c-7.1,0-14-2.4-19.6-6.7
		c-1.1-0.9-2.5-1.4-3.9-1.6c-7.1-0.9-13.9-3.7-19.7-8c-2.8-2.1-6.8-2.1-9.6,0c-5.8,4.3-12.5,7.1-19.7,8c-1.4,0.2-2.8,0.7-3.9,1.6
		c-5.6,4.4-12.5,6.8-19.6,6.7c-17.7,0-32-14.3-32-32c0-5.3,1.3-10.5,3.8-15.2c1.5-2.9,1.2-6.4-0.9-8.9c-5.8-7.1-6.6-17.1-2-25l0,0
		c1.3-2.2,2.9-4.1,4.9-5.8c2.3-1.9,3.4-5,2.7-8c-2.8-11.8,4.5-23.7,16.3-26.5c1.2-0.3,2.4-0.5,3.6-0.6c2.7-0.2,5.1-1.7,6.4-4
		c14.3-24.9,46.1-33.5,71-19.2c8,4.6,14.6,11.2,19.2,19.2c1.3,2.3,3.7,3.8,6.4,4c12.1,0.8,21.3,11.3,20.5,23.4
		c-0.1,1.2-0.3,2.4-0.6,3.6c-0.7,3,0.3,6,2.7,8c5,4.2,7.9,10.4,7.9,16.9C480,239.1,478.3,244,475,247.9z"/>
	<path class="st0" d="M398,168c-13.6,0-25.6,8.6-30.2,21.3c-1.5,4.2,0.7,8.7,4.9,10.2c4.2,1.5,8.7-0.7,10.2-4.9
		c3-8.3,12.1-12.7,20.4-9.7c4.6,1.6,8.1,5.2,9.7,9.7c1.5,4.2,6,6.3,10.2,4.9c4.2-1.5,6.3-6,4.9-10.2C423.6,176.6,411.6,168,398,168z
		"/>
	<path class="st0" d="M358,224c4.4,0,8-3.6,8-8s-3.6-8-8-8c-13.3,0-24,10.7-24,24s10.7,24,24,24c4.4,0,8-3.6,8-8s-3.6-8-8-8
		s-8-3.6-8-8S353.6,224,358,224z"/>
	<path class="st0" d="M72,360H56c-4.4,0-8,3.6-8,8s3.6,8,8,8h16c4.4,0,8-3.6,8-8S76.4,360,72,360z"/>
	<path class="st0" d="M440,376h16c4.4,0,8-3.6,8-8s-3.6-8-8-8h-16c-4.4,0-8,3.6-8,8S435.6,376,440,376z"/>
	<path class="st0" d="M264,360h-16c-4.4,0-8,3.6-8,8s3.6,8,8,8h16c4.4,0,8-3.6,8-8S268.4,360,264,360z"/>
	<path class="st0" d="M204.6,320c4.4,0,8-3.6,8-8c0-2.1-0.8-4.2-2.3-5.7c-2.3-2.3-2.9-5.9-1.4-8.9l2.9-5.9c1.9-4,0.3-8.8-3.7-10.7
		c-3.9-1.9-8.7-0.3-10.6,3.5l-2.9,5.9c-4.6,9.1-2.8,20.1,4.4,27.4C200.4,319.2,202.5,320,204.6,320z"/>
</g>
</svg>
