<?xml version="1.0" encoding="utf-8"?>
<!-- Generator: Adobe Illustrator 24.1.2, SVG Export Plug-In . SVG Version: 6.00 Build 0)  -->
<svg version="1.1" id="Layer_1" xmlns="http://www.w3.org/2000/svg" xmlns:xlink="http://www.w3.org/1999/xlink" x="0px" y="0px"
	 viewBox="0 0 512 512" style="enable-background:new 0 0 512 512;" xml:space="preserve">
<style type="text/css">
	.st0{fill:#FFFFFF;}
</style>
<g>
	<path class="st0" d="M348.9,98.2c-2.6-5.5-10.5-5.7-13.4-0.4c-0.1,0.2-12.7,23.2-37,44.5c-7.3,6.4,2.6,17.7,9.9,11.3
		c14.9-13.1,25.6-26.6,32.3-36c5.9,15.3,15.1,42.8,20,74.8c4.4,28.5,4.5,55,0.4,78.6c-5.1,29.2-16.7,54.2-34.5,74.4
		c-16.9,19.2-40.2,31.6-65.5,34.9c-25.7,3.4-52.4-2.9-75-17.6c-5.7-3.7-10.9-7.9-15.4-12.5c6.2-8,13.5-15.4,21.6-22.3
		c21.7-18.1,46.7-31.7,69-48.8c13.6-10.4,26.2-21.9,36.7-35.4c2.5-3.2,3.1-7.5,0-10.6c-2.6-2.6-8.1-3.2-10.6,0
		c-34.3,44.2-91.2,62.7-126.6,105.1c-6.7-10-11-21.3-12.4-33.4c-2.8-23.7,5.7-48,23.4-66.9c18.1-19.2,38.6-28.9,62.5-40.2
		c12.7-6,25.8-12.2,40.3-20.5c8.4-4.8,1-17.8-7.4-13c-14,8-26.9,14.1-39.3,20c-25.2,12-47,22.3-66.9,43.5
		c-20.8,22.1-30.8,50.8-27.4,78.9c1.9,16.2,8.1,31.3,17.9,44.3c-9,13.9-15,29.7-18.3,45.9c-1.9,9.4,12.6,13.5,14.5,4
		c2.8-13.9,7.7-26.5,14.5-37.9c4.8,4.5,10,8.7,15.8,12.5c21.6,14,45.6,20.9,69.3,20.9c33.9,0,66.9-14,90.6-40.8
		c19.7-22.3,32.5-49.9,38-82c4.4-25.3,4.2-53.5-0.5-83.6C367.5,138.7,349.6,99.8,348.9,98.2L348.9,98.2z"/>
	<path class="st0" d="M437,75C388.7,26.6,324.4,0,256,0S123.3,26.6,75,75C26.6,123.3,0,187.6,0,256s26.6,132.7,75,181
		c48.4,48.4,112.6,75,181,75c37.5,0,73.6-7.9,107.4-23.6c8.8-4.1,2.5-17.7-6.3-13.6C325.3,489.5,291.3,497,256,497
		c-64.4,0-124.9-25.1-170.4-70.6S15,320.4,15,256S40.1,131.1,85.6,85.6S191.6,15,256,15s124.9,25.1,170.4,70.6S497,191.6,497,256
		c0,80.4-39.9,155.2-106.7,200.1c-8,5.4,0.3,17.9,8.4,12.4C469.6,420.9,512,341.4,512,256C512,187.6,485.4,123.3,437,75L437,75z"/>
</g>
</svg>
