<?xml version="1.0" encoding="utf-8"?>
<!-- Generator: Adobe Illustrator 24.1.2, SVG Export Plug-In . SVG Version: 6.00 Build 0)  -->
<svg version="1.1" id="Capa_1" xmlns="http://www.w3.org/2000/svg" xmlns:xlink="http://www.w3.org/1999/xlink" x="0px" y="0px"
	 viewBox="0 0 512 512" style="enable-background:new 0 0 512 512;" xml:space="preserve">
<style type="text/css">
	.st0{fill:#FFFFFF;}
</style>
<g>
	<g>
		<path class="st0" d="M366,396c-5.5,0-10,4.5-10,10s4.5,10,10,10s10-4.5,10-10S371.5,396,366,396z"/>
	</g>
</g>
<g>
	<g>
		<path class="st0" d="M390.6,363.7l-47.5-15.8L326,313.7c15.4-15.6,26-36.3,29.6-57.9l2.1-12.8H376c16.5,0,30-13.5,30-30v-63
			C406,67.3,338.7,0,256,0c-82.9,0-150,67.1-150,150v63c0,13,8.4,24.2,20,28.3V253c0,16.5,13.5,30,30,30h8.8
			c4.3,9.4,9.9,18.1,16.8,26c1.4,1.6,2.9,3.2,4.4,4.7l-17.1,34.1l-47.5,15.8C66.1,382.1,26,440.3,26,502c0,5.5,4.5,10,10,10h440
			c5.5,0,10-4.5,10-10C486,440.3,445.9,382.1,390.6,363.7z M386,213c0,5.5-4.5,10-10,10h-15.3c2.5-19.7,4.2-40.6,4.9-61.3
			c0-0.6,0-1.1,0.1-1.7H386V213z M136,223c-5.5,0-10-4.5-10-10v-53h20.3c0,1,0.1,2.1,0.1,3.1c0,0,0,0.1,0,0.1c0,0,0,0,0,0
			c0.7,20.1,2.4,40.5,4.9,59.7L136,223L136,223z M156,263c-5.5,0-10-4.5-10-10v-10h8.2l2.1,12.8c0.4,2.4,0.9,4.8,1.5,7.2H156z
			 M146,140h-19.6c5.1-67,61-120,129.6-120c68.3,0,124.5,53,129.6,120H366c-0.7-55.2-45.7-100-101-100h-17.9
			C191.7,40,146.7,84.8,146,140z M247.1,60H265c44.8,0,81.1,36.7,81,81.4c0,3.1,0,5.9-0.1,8.4c0,0,0,0.1,0,0.1l-12.5-1.8
			c-34-4.9-66.1-20.9-90.3-45.2c-1.9-1.9-4.4-2.9-7.1-2.9c-26.9,0-52.6,12.2-69.6,32.9C170.6,92.2,205.1,60,247.1,60z M178.5,263
			c-5-16.7-10.7-65.7-12-97.1L180,148c12.4-16.5,31.6-26.7,52-27.9c26.9,25.6,61.7,42.5,98.5,47.8l14.7,2.1c-1,20.9-3,41.8-5.9,61.1
			c0,0,0,0,0,0c-0.9,6.2-1.6,10.2-3.5,21.3c-5.3,31.8-29,60.5-60.3,68.3c-12.9,3.2-26.4,3.2-39.3,0c-19.5-4.9-37.5-18.4-49-37.8
			h20.4c4.1,11.6,15.2,20,28.3,20h20c16.6,0,30-13.4,30-30c0-16.5-13.5-30-30-30h-20c-13.3,0-24.3,8.6-28.3,20H178.5z M235.2,341
			c6.9,1.4,13.9,2.2,20.8,2.2c5.5,0,10.9-0.5,16.4-1.3l-17.7,18.7L235.2,341z M240.9,375.1l-31.7,33.5
			c-8.7-16.7-16.2-34.1-22.4-51.9l11.9-23.8L240.9,375.1z M311.6,329.5l13.6,27.2c-6.2,17.8-13.7,35.2-22.4,51.9l-33.9-33.9
			L311.6,329.5z M226,273c0-5.5,4.5-10,10-10h20c5.5,0,10,4.5,10,10c0,5.5-4.5,10-10,10h-20C230.5,283,226,278.5,226,273z M46.4,492
			c4-49.5,36.9-94.6,81.3-109.4l42.1-14c7.7,21.3,17.3,42.1,28.5,61.7c0,0,0,0.1,0.1,0.1c0,0,0,0,0,0c8.2,14.4,17.4,28.5,27.4,41.8
			L238,492H46.4z M256,483.1l-13.6-21.8c-0.2-0.2-0.3-0.5-0.5-0.7c-8.1-10.8-15.7-22.1-22.5-33.7l35.7-37.7l37.6,37.6
			c-6.9,11.6-14.5,23-22.6,33.8C269.6,461.3,270.3,460.2,256,483.1z M274,492l12.3-19.7c10-13.4,19.3-27.6,27.6-42.1
			c0-0.1,0.1-0.2,0.1-0.3c0,0,0,0,0,0c11.1-19.5,20.5-40,28.2-61.2l42.1,14c44.4,14.8,77.3,59.8,81.3,109.4L274,492L274,492z"/>
	</g>
</g>
<g>
	<g>
		<path class="st0" d="M435.5,451.5c-6.7-13.4-16.5-25.3-28.3-34.4c-4.4-3.4-10.7-2.5-14,1.8c-3.4,4.4-2.5,10.7,1.8,14
			c9.5,7.3,17.3,16.8,22.6,27.5c2.5,4.9,8.5,6.9,13.4,4.5C436,462.5,438,456.5,435.5,451.5z"/>
	</g>
</g>
</svg>
