<?xml version="1.0" encoding="utf-8"?>
<!-- Generator: Adobe Illustrator 24.1.2, SVG Export Plug-In . SVG Version: 6.00 Build 0)  -->
<svg version="1.1" id="Layer_5" xmlns="http://www.w3.org/2000/svg" xmlns:xlink="http://www.w3.org/1999/xlink" x="0px" y="0px"
	 viewBox="0 0 512 512" style="enable-background:new 0 0 512 512;" xml:space="preserve">
<style type="text/css">
	.st0{fill:#FFFFFF;}
</style>
<g>
	<path class="st0" d="M504,287.6c0-34.8-16.9-68.1-45.2-89c-5.8-4.3-12.9-6.6-20.1-6.6c-9,0-17.5,3.6-23.7,9.7c-1.2-1-2.2-2-3.4-3
		c-4.4-3.4-9.8-5.4-15.2-6.2l3.5-38.8c0.1-0.9,0.1-1.9,0.1-2.8c0-17.1-13.9-31-31-31H367c-17.1,0-31,13.9-31,31c0,0.9,0,1.9,0.1,2.8
		l3.5,39c-5.1,1-10,2.9-14.1,6c-1.4,1.1-2.7,2.3-4.1,3.4c-0.7-0.7-1.5-1.4-2.2-2.1c0.5-2.7,0.8-5.4,0.8-8.1c0-10.2-3.2-19.9-9-28
		c5.9-8.1,9-17.8,9-28c0-27.4-23.2-49.6-50.8-47.9c-5.1-14.7-17.1-25.8-31.8-30.1c-9.7-12.2-24.4-18.9-40.2-17.9
		C190.6,21.1,172.6,8,152,8c-17.3,0-33.1,9.3-41.6,24c-21.2,0.7-39.5,15.7-44.7,36C40.9,77.3,24,101.3,24,128
		c0,21.4,10.5,41,28,52.9c-2.6,6-4,12.5-4,19.1c0,14.4,6.4,27.8,17.4,36.8c-0.9,3.7-1.4,7.4-1.4,11.2c0,24.5,18.5,44.8,42.2,47.7
		l17.7,49.6c-9.1,6.7-16.8,15-22.7,24.6l-41.9-9.3c-1.6-0.4-3.2-0.5-4.9-0.5C42.1,360,32,370.1,32,382.4v3.2c0,2.2,0.4,4.4,1,6.4h-1
		c-13.2,0-24,10.8-24,24s10.8,24,24,24h1c-0.6,2-1,4.2-1,6.4v3.2c0,12.4,10.1,22.4,22.4,22.4c1.6,0,3.3-0.2,4.9-0.5l41.9-9.3
		c15.5,25.1,43.2,41.9,74.8,41.9h1.9c4.4,0,9-0.3,13.4-1l274.3-42.2c22.3-3.4,38.4-22.3,38.4-44.8c0-18-10.4-33.5-25.9-40.8
		c16.6-19.8,25.9-44.9,25.9-70.8L504,287.6z M401.9,211.5c23.9,18.3,38.1,47.3,38.1,77.8v29.4c0,16.4-4.1,32.5-11.8,46.8l-64.2-9.9
		c-2.6-11.6-4.1-23.5-4.1-35.4v-32.5c0-8.1,0.8-16.1,2-24.1c2,0.2,3.9,0.3,6,0.3c22.8,0,40-10.3,40-24c0-7.6-5.2-14.3-14.3-18.7
		l1.2-12.9C397.4,208.9,399.8,209.9,401.9,211.5L401.9,211.5z M367,136h2.1c8.2,0,15,6.7,15,15c0,0.5,0,0.9-0.1,1.4l-7.3,79.9l6.1,2
		c7,2.2,9.2,5.2,9.2,5.8c0,2-8.5,8-24,8s-24-6-24-8c0-0.6,2.2-3.6,9.2-5.8l6.1-2l-7.3-79.9c0-0.5-0.1-0.9-0.1-1.4
		C352,142.7,358.7,136,367,136L367,136z M341.1,208.7l1.2,12.7c-9,4.4-14.3,11.1-14.3,18.7c0,8.8,7.2,16.2,18.4,20.3
		c-1.4,9.1-2.4,18.2-2.4,27.4v32.5c0,11,1.1,22,3.1,32.8l-47.2-7.3c-2.6-8.8-3.9-17.9-3.9-27.1v-29.4c0-30.4,14.6-59.5,39.1-77.8
		C336.9,210.2,339,209.2,341.1,208.7z M254.7,338.8c-4.3-11-6.7-22.5-6.7-34.4v-16.8c0-29.8,14.5-58.2,38.7-76.1
		c3-2.2,6.8-3.5,10.6-3.5c4.8,0,9.3,1.9,12.5,5.2C291,233.9,280,261,280,289.3v29.4c0,8.2,1,16.4,2.8,24.4L254.7,338.8z M255.4,98.4
		l1.5,8.2l8.2-1.8c2.5-0.6,4.8-0.8,7-0.8c17.6,0,32,14.4,32,32c0,8.4-3.3,16.4-9.2,22.4l-5.5,5.6l5.5,5.6c5.9,6,9.2,14,9.2,22.4
		c0,0.2,0,0.5,0,0.7c-2.2-0.4-4.4-0.7-6.6-0.7c-7.2,0-14.4,2.3-20.1,6.6c-14.6,10.7-26,24.8-33.8,40.6c-3-9.4-6.2-18.5-9.5-27.1
		c7.4-39.1,34.8-61.7,35.1-61.9l-5-6.2l-5-6.2c-1.1,0.9-22.8,18.6-34.9,50.4c-16.6-38.2-32.4-63-33.4-64.5l-13.5,8.7
		c0.2,0.3,12.4,19.5,26.6,50.1c-23.9-9-51.1-6.5-52.7-6.4l1.6,15.9c12-1.2,46.1-0.6,62,15.6c5.6,13.8,11.1,28.9,16,45.1
		C206.5,240.2,177.5,240,176,240v16c0.4,0,36,0.2,57.1,17c-0.7,4.8-1.1,9.7-1.1,14.6v16.8c0,10.8,1.7,21.4,4.8,31.6l-45.5-7
		c-2.4-0.4-4.8-0.6-7.3-0.8c-17.6,0-32-14.5-32-32.2c0-3.7,0.7-7.6,2.2-11.4l2.3-6.1L151,275c-9.4-5.9-15-16-15-27
		c0-6.3,1.8-12.4,5.3-17.7l5-7.5l-8-4.1c-16.2-8.3-26.3-24.6-26.3-42.8c0-21.3,14.3-40.2,34.8-46.1l5-1.4l0.7-5.1
		C154.8,107.8,168.3,96,184,96c0.3,0,0.6,0.1,0.9,0.1c0.6,0.1,1.1,0.2,1.7,0.2l5.7,0.5l2.3-5.3c5-11.8,16.6-19.5,29.4-19.5
		C239.5,72,252.7,83.1,255.4,98.4L255.4,98.4z M117.6,280H112c-17.6,0-32-14.4-32-32c0-3.7,0.7-7.6,2.2-11.4l2.3-6.1L79,227
		c-9.4-5.9-15-16-15-27c0-6.3,1.8-12.4,5.3-17.7l5-7.5l-8-4.1C50.1,162.5,40,146.1,40,128c0-21.3,14.3-40.2,34.8-46.1l5-1.4l0.7-5.1
		C82.8,59.8,96.3,48,112,48c0.3,0,0.6,0.1,0.9,0.1c0.5,0.1,1.1,0.1,1.6,0.2l5.8,0.5l2.3-5.3c5-11.8,16.6-19.5,29.4-19.5
		c15.5,0,28.7,11.1,31.4,26.4l1.5,8.2l8.2-1.8c2.5-0.6,4.8-0.8,7-0.8c3.7,0,7.2,0.8,10.5,2c-11.8,3.4-21.9,11.2-28.1,22
		c-21.2,0.7-39.5,15.7-44.7,36C112.9,125.3,96,149.3,96,176c0,21.4,10.5,41,28,52.9c-2.6,6-4,12.5-4,19.1c0,14.4,6.4,27.8,17.4,36.9
		c-0.9,3.7-1.4,7.4-1.4,11.1c0,14.1,6,26.7,15.6,35.5c-4.8,1.4-9.3,3.2-13.7,5.3L117.6,280z M48,385.6v-3.2c0-4,3.9-7.1,7.8-6.3
		l38.1,8.5c-0.9,2.4-1.8,4.9-2.5,7.4h-37C50.9,392,48,389.1,48,385.6z M24,416c0-4.4,3.6-8,8-8h22.4h34c-0.2,2.6-0.4,5.3-0.4,8
		s0.2,5.4,0.4,8h-34H32C27.6,424,24,420.4,24,416z M55.8,455.8c-3.8,0.8-7.8-2.3-7.8-6.3v-3.2c0-3.5,2.9-6.4,6.4-6.4h37
		c0.7,2.5,1.6,5,2.5,7.4L55.8,455.8z M488,416c0,14.6-10.4,26.7-24.8,29l-274.3,42.2c-3.6,0.6-7.3,0.8-11,0.8H176
		c-39.7,0-72-32.3-72-72s32.3-72,72-72h1.9c3.6,0,7.3,0.3,11,0.8L463.2,387C477.6,389.3,488,401.4,488,416z M488,304.4
		c0,24.6-10,48.4-27.3,66.1l-15.9-2.4c7.3-15.3,11.2-32.2,11.2-49.3v-29.4c0-28.4-10.8-55.7-29.4-76.4c3.2-3,7.5-4.9,12.1-4.9
		c3.8,0,7.6,1.2,10.6,3.5c24.2,17.9,38.7,46.3,38.7,76.1L488,304.4z"/>
	<path class="st0" d="M168,376h16v80h-16V376z"/>
	<path class="st0" d="M232,376h16v80h-16V376z"/>
	<path class="st0" d="M296,376h16v80h-16V376z"/>
	<path class="st0" d="M360,392h16v48h-16V392z"/>
	<path class="st0" d="M424,400h16v32h-16V400z"/>
</g>
</svg>
